<?xml version="1.0" encoding="UTF-8"?>
<svg version="1.1" xmlns="http://www.w3.org/2000/svg" width="188" height="188">
<path d="M0 0 C18.46011191 14.7915771 33.6922341 35.59263549 36.78466797 59.61621094 C38.21551692 75.45613067 38.37560436 91.87653015 33 107 C32.76394043 107.6688623 32.52788086 108.33772461 32.28466797 109.02685547 C23.35488562 133.35202014 5.29454214 151.15027706 -17.8828125 162.203125 C-39.87615173 172.17841606 -65.71241564 171.52989302 -88.2421875 163.90234375 C-110.73376344 155.28544128 -129.73841997 137.20524882 -139.73046875 115.32421875 C-149.87906428 91.89002213 -150.20272414 65.26565282 -141.6796875 41.28515625 C-136.73419142 28.84034233 -129.33675494 18.5204288 -120 9 C-118.82050781 7.76636719 -118.82050781 7.76636719 -117.6171875 6.5078125 C-86.35726562 -24.17853283 -34.80378721 -24.72790189 0 0 Z " fill="#FCFCFC" transform="translate(149,19)"/>
<path d="M0 0 C1.43956055 -0.02416992 1.43956055 -0.02416992 2.90820312 -0.04882812 C14.96712194 -0.05694861 23.92692394 2.72498837 32.5625 11.3125 C36.88151917 16.04444865 37.12392916 21.23063506 36.87109375 27.390625 C35.96665319 35.95418875 31.90300282 41.56231986 25.5625 47.3125 C18.26017442 52.3125 18.26017442 52.3125 14.5625 52.3125 C14.5625 52.9725 14.5625 53.6325 14.5625 54.3125 C15.408125 54.395 16.25375 54.4775 17.125 54.5625 C25.33476356 56.35372114 30.27465011 61.21801587 34.70703125 68.0859375 C37.25707681 74.72304237 36.38492486 84.1929409 33.9375 90.75 C27.81162162 103.68716972 16.94411729 112.49296527 3.5625 117.3125 C-3.95463789 119.35928686 -11.25810926 119.58003155 -19.0078125 119.5078125 C-20.17005341 119.5049826 -21.33229431 119.50215271 -22.52975464 119.49923706 C-26.20744537 119.48812659 -29.88488405 119.463039 -33.5625 119.4375 C-36.07030896 119.4274584 -38.57812177 119.41833462 -41.0859375 119.41015625 C-47.20320963 119.38821722 -53.3203368 119.35483165 -59.4375 119.3125 C-59.1075 117.6625 -58.7775 116.0125 -58.4375 114.3125 C-57.70144531 114.14234375 -56.96539062 113.9721875 -56.20703125 113.796875 C-55.23121094 113.55453125 -54.25539063 113.3121875 -53.25 113.0625 C-52.28707031 112.83046875 -51.32414062 112.5984375 -50.33203125 112.359375 C-45.90495447 110.75821903 -43.18610911 108.63621636 -40.85424805 104.51293945 C-36.10291878 92.48125006 -33.19888751 80.07539801 -30.25 67.5 C-29.46825988 64.20778775 -28.6832647 60.91638236 -27.89567566 57.62556458 C-27.41075962 55.59518615 -26.92961837 53.56390075 -26.45307922 51.53153992 C-25.16753003 46.1025801 -23.72087729 40.77490062 -22.01689148 35.46138 C-21.27277875 32.70157249 -21.21329469 30.15243392 -21.4375 27.3125 C-23.9125 26.3225 -23.9125 26.3225 -26.4375 25.3125 C-26.1075 23.6625 -25.7775 22.0125 -25.4375 20.3125 C-23.38671875 20.08463542 -21.3359375 19.85677083 -19.28515625 19.62890625 C-17.42609771 19.49363386 -17.42609771 19.49363386 -16.4375 18.3125 C-14.08762738 18.07722227 -11.73193961 17.89863583 -9.375 17.75 C-8.08464844 17.66621094 -6.79429688 17.58242188 -5.46484375 17.49609375 C-4.46582031 17.43550781 -3.46679688 17.37492187 -2.4375 17.3125 C-4.03775165 24.62572736 -5.75245142 31.90817357 -7.5 39.1875 C-7.9031543 40.87746094 -7.9031543 40.87746094 -8.31445312 42.6015625 C-8.57291016 43.67921875 -8.83136719 44.756875 -9.09765625 45.8671875 C-9.33105713 46.84155762 -9.56445801 47.81592773 -9.80493164 48.81982422 C-10.27475546 50.67119479 -10.8334878 52.50046339 -11.4375 54.3125 C-1.43189794 53.00592653 8.93597956 51.64298284 15.5625 43.3125 C21.14367623 35.05999156 22.39537147 29.46890485 21.5625 19.3125 C19.46993506 14.8173605 16.74079319 11.97141385 12.5625 9.3125 C7.0449491 7.6678454 2.05537088 6.95484329 -3.6875 7 C-4.42548828 7.00418945 -5.16347656 7.00837891 -5.92382812 7.01269531 C-23.5323777 7.37220957 -40.51954235 15.95286588 -53.18359375 27.92578125 C-59.12140773 34.21348374 -63.41261809 41.22703366 -66.4375 49.3125 C-66.79457031 50.24835938 -67.15164062 51.18421875 -67.51953125 52.1484375 C-69.46577027 58.85675071 -69.79609167 67.2257861 -67 73.75 C-64.63966559 77.72665037 -61.09822794 80.23866528 -57.36328125 82.8671875 C-55.4375 84.3125 -55.4375 84.3125 -54.4375 86.3125 C-54.25 89.3125 -54.25 89.3125 -54.4375 92.3125 C-56.4375 94.3125 -56.4375 94.3125 -60.125 94.4375 C-64.75030289 93.7155834 -66.86015834 91.38469109 -69.796875 87.90625 C-74.34321062 80.71870987 -76.05944729 74.74368688 -75.8125 66.25 C-75.81056641 64.9805957 -75.81056641 64.9805957 -75.80859375 63.68554688 C-75.59065337 47.98173174 -68.24409222 33.87001496 -57.21484375 22.92578125 C-41.11187554 7.77404323 -22.1451636 -0.07406409 0 0 Z " fill="#090909" transform="translate(109.4375,29.6875)"/>
<path d="M0 0 C2.5419589 -0.05434116 5.08273682 -0.0938339 7.625 -0.125 C8.33785156 -0.14175781 9.05070312 -0.15851563 9.78515625 -0.17578125 C16.35185123 -0.23602616 21.24695795 0.86438335 26.25 5.375 C26.91515625 5.96023437 27.5803125 6.54546875 28.265625 7.1484375 C32.64662309 11.82544898 32.42344363 16.36176754 32.3125 22.546875 C31.53797848 31.10533779 28.04903033 38.87049477 22 45 C14.1417401 51.54612003 6.32366329 53.35748401 -3.6875 53.1875 C-4.42033203 53.18685547 -5.15316406 53.18621094 -5.90820312 53.18554688 C-9.72257556 53.15459164 -13.29231331 52.91412394 -17 52 C-15.8812102 49.01656052 -14.59778862 46.21294298 -13.109375 43.40234375 C-10.8611336 38.92525994 -9.3875773 34.3659064 -8 29.5625 C-7.74581299 28.70156738 -7.49162598 27.84063477 -7.22973633 26.95361328 C-5.14175564 19.76409873 -3.38595605 12.51732214 -1.76171875 5.2109375 C-1 2 -1 2 0 0 Z " fill="#FAFAFA" transform="translate(96,90)"/>
<path d="M0 0 C0.66 0.33 1.32 0.66 2 1 C-2.95 5.95 -7.9 10.9 -13 16 C-13.66 15.67 -14.32 15.34 -15 15 C-13.44221619 13.2456027 -11.87905295 11.49653989 -10.3125 9.75 C-9.44238281 8.77546875 -8.57226562 7.8009375 -7.67578125 6.796875 C-5.25206689 4.26347429 -2.7912151 2.11227089 0 0 Z " fill="#CECECE" transform="translate(64,50)"/>
</svg>
